# xmcd CD database file
#
# Track frame offsets:
#	150
#	27132
#	54014
#	70653
#	92556
#	154534
#	190087
#	204509
#	221898
#	235876
#	241848
#	251910
#	266441
#
# Disc length: 3850 seconds
#
# Revision: 1
# Processed by: cddbd v1.5PL3 Copyright (c) Steve Scherf et al.
# Submitted via: CDex 1.51
#
DISCID=a70f080d
DTITLE=Phish - Le Spectrum 12-13-92 Disc 2
DYEAR=1992
DGENRE=Blues
TTITLE0=Suzy Greenberg
TTITLE1=Mound
TTITLE2=Bouncing Around the Room
TTITLE3=Llama
TTITLE4=Fluffhead
TTITLE5=Chalkdust Torture
TTITLE6=Crew Instructions
TTITLE7=TMWSIY
TTITLE8=Avenu Malkenu
TTITLE9=TMWSIY
TTITLE10=My Sweet One
TTITLE11=BBJ
TTITLE12=HYHU Cracklin Rose HYHU
EXTD=YEAR: 1992
EXTT0=
EXTT1=
EXTT2=
EXTT3=
EXTT4=
EXTT5=
EXTT6=
EXTT7=
EXTT8=
EXTT9=
EXTT10=
EXTT11=
EXTT12=
PLAYORDER=
